<svg xmlns="http://www.w3.org/2000/svg" width="1600" height="720" viewBox="0 0 1600 720" role="img" aria-label="soft sky banner">
  <defs>
    <linearGradient id="sky" x1="0" y1="0" x2="1" y2="1">
      <stop offset="0" stop-color="#fdf2f8"/>
      <stop offset="0.48" stop-color="#dbeafe"/>
      <stop offset="1" stop-color="#e0f2fe"/>
    </linearGradient>
    <linearGradient id="sun" x1="0" y1="0" x2="1" y2="1">
      <stop offset="0" stop-color="#fde68a"/>
      <stop offset="1" stop-color="#f9a8d4"/>
    </linearGradient>
    <filter id="soft" x="-20%" y="-20%" width="140%" height="140%">
      <feGaussianBlur stdDeviation="18"/>
    </filter>
  </defs>
  <rect width="1600" height="720" fill="url(#sky)"/>
  <circle cx="1230" cy="155" r="92" fill="url(#sun)" opacity="0.9"/>
  <circle cx="1260" cy="178" r="118" fill="#ffffff" opacity="0.2" filter="url(#soft)"/>
  <g fill="#fff" opacity="0.82">
    <ellipse cx="270" cy="170" rx="88" ry="28"/>
    <ellipse cx="335" cy="170" rx="66" ry="24"/>
    <ellipse cx="305" cy="145" rx="52" ry="27"/>
    <ellipse cx="1040" cy="245" rx="92" ry="30"/>
    <ellipse cx="1114" cy="244" rx="70" ry="24"/>
    <ellipse cx="1085" cy="220" rx="55" ry="28"/>
  </g>
  <path d="M0 526 C215 478 360 566 560 520 C755 475 920 505 1092 552 C1270 600 1435 520 1600 562 L1600 720 L0 720 Z" fill="#ffffff" opacity="0.42"/>
  <path d="M0 600 C190 565 315 616 505 592 C745 562 880 636 1095 602 C1290 571 1430 606 1600 582 L1600 720 L0 720 Z" fill="#f8fafc" opacity="0.78"/>
  <g transform="translate(690 456)">
    <path d="M0 0 h178 a18 18 0 0 1 18 18 v92 H-18 V18 A18 18 0 0 1 0 0Z" fill="#ffffff" opacity="0.88"/>
    <path d="M16 28 h146 M16 55 h120 M16 82 h142" stroke="#a5b4fc" stroke-width="9" stroke-linecap="round" opacity="0.65"/>
    <path d="M-42 110 h292" stroke="#c4b5fd" stroke-width="13" stroke-linecap="round" opacity="0.55"/>
  </g>
  <text x="800" y="318" text-anchor="middle" font-family="Nunito, 'Segoe UI', sans-serif" font-size="78" font-weight="700" fill="#475569" opacity="0.92">nyaru177</text>
  <text x="800" y="376" text-anchor="middle" font-family="Nunito, 'Segoe UI', sans-serif" font-size="28" fill="#64748b">write softly, learn steadily</text>
</svg>
