<svg xmlns="http://www.w3.org/2000/svg" width="900" height="600" viewBox="0 0 900 600" role="img" aria-label="code cover">
  <defs>
    <linearGradient id="bg" x1="0" y1="0" x2="1" y2="1">
      <stop offset="0" stop-color="#ecfeff"/>
      <stop offset="1" stop-color="#e0e7ff"/>
    </linearGradient>
  </defs>
  <rect width="900" height="600" rx="42" fill="url(#bg)"/>
  <g fill="#fff" opacity="0.78">
    <ellipse cx="650" cy="105" rx="82" ry="25"/>
    <ellipse cx="720" cy="106" rx="58" ry="20"/>
    <ellipse cx="690" cy="84" rx="50" ry="24"/>
  </g>
  <g transform="translate(210 175)">
    <rect width="480" height="285" rx="26" fill="#ffffff" opacity="0.92"/>
    <rect x="0" y="0" width="480" height="58" rx="26" fill="#c7d2fe" opacity="0.68"/>
    <circle cx="38" cy="30" r="8" fill="#fb7185" opacity="0.75"/>
    <circle cx="68" cy="30" r="8" fill="#facc15" opacity="0.75"/>
    <circle cx="98" cy="30" r="8" fill="#34d399" opacity="0.75"/>
    <path d="M72 105 h130 M72 145 h245 M72 185 h185 M72 225 h270" stroke="#93c5fd" stroke-width="13" stroke-linecap="round" opacity="0.72"/>
    <path d="M338 104 l38 38 -38 38 M142 250 h138" stroke="#c084fc" stroke-width="13" stroke-linecap="round" stroke-linejoin="round" opacity="0.58" fill="none"/>
  </g>
  <text x="450" y="520" text-anchor="middle" font-family="Nunito, 'Segoe UI', sans-serif" font-size="36" font-weight="700" fill="#64748b">Code & Backend</text>
</svg>
