<svg xmlns="http://www.w3.org/2000/svg" width="900" height="600" viewBox="0 0 900 600" role="img" aria-label="nyaru177 default blog cover">
  <defs>
    <linearGradient id="bg" x1="0" y1="0" x2="1" y2="1">
      <stop offset="0" stop-color="#101827"/>
      <stop offset="0.52" stop-color="#172554"/>
      <stop offset="1" stop-color="#312e81"/>
    </linearGradient>
    <linearGradient id="accent" x1="0" y1="0" x2="1" y2="1">
      <stop offset="0" stop-color="#38bdf8"/>
      <stop offset="1" stop-color="#a78bfa"/>
    </linearGradient>
    <filter id="blur" x="-30%" y="-30%" width="160%" height="160%">
      <feGaussianBlur stdDeviation="24"/>
    </filter>
  </defs>
  <rect width="900" height="600" rx="42" fill="url(#bg)"/>
  <circle cx="182" cy="128" r="96" fill="#38bdf8" opacity="0.16" filter="url(#blur)"/>
  <circle cx="748" cy="472" r="126" fill="#a78bfa" opacity="0.16" filter="url(#blur)"/>
  <path d="M86 430 C190 382 292 455 392 410 C518 354 638 432 812 352" fill="none" stroke="#7dd3fc" stroke-width="2" opacity="0.22"/>
  <path d="M86 476 C224 430 330 494 456 448 C590 400 684 466 812 418" fill="none" stroke="#c4b5fd" stroke-width="2" opacity="0.18"/>
  <g opacity="0.22" stroke="#ffffff" stroke-width="1">
    <path d="M80 96 H820"/>
    <path d="M80 192 H820"/>
    <path d="M80 288 H820"/>
    <path d="M80 384 H820"/>
    <path d="M80 480 H820"/>
    <path d="M180 60 V540"/>
    <path d="M340 60 V540"/>
    <path d="M500 60 V540"/>
    <path d="M660 60 V540"/>
  </g>
  <g transform="translate(236 188)">
    <rect x="0" y="0" width="428" height="224" rx="28" fill="#0f172a" opacity="0.74"/>
    <rect x="26" y="28" width="376" height="168" rx="20" fill="#ffffff" opacity="0.08"/>
    <circle cx="62" cy="63" r="9" fill="#fb7185" opacity="0.9"/>
    <circle cx="94" cy="63" r="9" fill="#fbbf24" opacity="0.9"/>
    <circle cx="126" cy="63" r="9" fill="#34d399" opacity="0.9"/>
    <path d="M70 112 h120 M70 146 h214 M70 180 h160" stroke="#93c5fd" stroke-width="11" stroke-linecap="round" opacity="0.62"/>
    <path d="M282 110 l34 34 -34 34 M354 110 l-34 34 34 34" fill="none" stroke="url(#accent)" stroke-width="12" stroke-linecap="round" stroke-linejoin="round" opacity="0.82"/>
  </g>
  <text x="450" y="114" text-anchor="middle" font-family="Inter, 'Segoe UI', Arial, sans-serif" font-size="54" font-weight="800" fill="#f8fafc">nyaru177</text>
  <text x="450" y="158" text-anchor="middle" font-family="Inter, 'Segoe UI', Arial, sans-serif" font-size="22" fill="#bfdbfe" opacity="0.88">notes / code / learning</text>
  <text x="450" y="512" text-anchor="middle" font-family="Inter, 'Segoe UI', Arial, sans-serif" font-size="24" fill="#e0f2fe" opacity="0.72">write steadily, build clearly</text>
</svg>
